<svg width="282" height="297" viewBox="0 0 282 297" fill="none" xmlns="http://www.w3.org/2000/svg">
<path d="M209.8 202H145.8C138.731 202 133 207.731 133 214.8V278.8C133 285.869 138.731 291.6 145.8 291.6H209.8C216.869 291.6 222.6 285.869 222.6 278.8V214.8C222.6 207.731 216.869 202 209.8 202Z" stroke="#1A192B" stroke-width="10"/>
<path d="M81.8 202H17.8C10.7308 202 5 207.731 5 214.8V278.8C5 285.869 10.7308 291.6 17.8 291.6H81.8C88.8694 291.6 94.6 285.869 94.6 278.8V214.8C94.6 207.731 88.8694 202 81.8 202Z" stroke="#1A192B" stroke-width="10"/>
<path d="M209.8 74H145.8C138.731 74 133 79.7308 133 86.8V150.8C133 157.869 138.731 163.6 145.8 163.6H209.8C216.869 163.6 222.6 157.869 222.6 150.8V86.8C222.6 79.7308 216.869 74 209.8 74Z" stroke="#E33873" stroke-width="10"/>
<path d="M81.8 74H17.8C10.7308 74 5 79.7308 5 86.8V150.8C5 157.869 10.7308 163.6 17.8 163.6H81.8C88.8694 163.6 94.6 157.869 94.6 150.8V86.8C94.6 79.7308 88.8694 74 81.8 74Z" stroke="#1A192B" stroke-width="10"/>
<path d="M94.6 138C105.204 138 113.8 129.404 113.8 118.8C113.8 108.196 105.204 99.6 94.6 99.6C83.9959 99.6 75.4 108.196 75.4 118.8C75.4 129.404 83.9959 138 94.6 138Z" fill="white"/>
<path d="M133 138C143.604 138 152.2 129.404 152.2 118.8C152.2 108.196 143.604 99.6 133 99.6C122.396 99.6 113.8 108.196 113.8 118.8C113.8 129.404 122.396 138 133 138Z" fill="white"/>
<path d="M177.8 182.8C188.404 182.8 197 174.204 197 163.6C197 152.996 188.404 144.4 177.8 144.4C167.196 144.4 158.6 152.996 158.6 163.6C158.6 174.204 167.196 182.8 177.8 182.8Z" fill="white"/>
<path d="M177.8 221.2C188.404 221.2 197 212.604 197 202C197 191.396 188.404 182.8 177.8 182.8C167.196 182.8 158.6 191.396 158.6 202C158.6 212.604 167.196 221.2 177.8 221.2Z" fill="white"/>
<path d="M94.6 266C105.204 266 113.8 257.404 113.8 246.8C113.8 236.196 105.204 227.6 94.6 227.6C83.9959 227.6 75.4 236.196 75.4 246.8C75.4 257.404 83.9959 266 94.6 266Z" fill="white"/>
<path d="M133 266C143.604 266 152.2 257.404 152.2 246.8C152.2 236.196 143.604 227.6 133 227.6C122.396 227.6 113.8 236.196 113.8 246.8C113.8 257.404 122.396 266 133 266Z" fill="white"/>
<path d="M177.8 214.8C184.869 214.8 190.6 209.069 190.6 202C190.6 194.931 184.869 189.2 177.8 189.2C170.731 189.2 165 194.931 165 202C165 209.069 170.731 214.8 177.8 214.8Z" fill="#1A192B"/>
<path d="M94.6 259.6C101.669 259.6 107.4 253.869 107.4 246.8C107.4 239.731 101.669 234 94.6 234C87.5305 234 81.8 239.731 81.8 246.8C81.8 253.869 87.5305 259.6 94.6 259.6Z" fill="#1A192B"/>
<path d="M133 259.6C140.069 259.6 145.8 253.869 145.8 246.8C145.8 239.731 140.069 234 133 234C125.931 234 120.2 239.731 120.2 246.8C120.2 253.869 125.931 259.6 133 259.6Z" fill="#1A192B"/>
<path opacity="0.35" d="M126.6 115.6H101V122H126.6V115.6Z" fill="#1A192B"/>
<path opacity="0.35" d="M174.6 166.8V192.4H181V166.8H174.6Z" fill="#1A192B"/>
<path opacity="0.35" d="M126.6 243.6H101V250H126.6V243.6Z" fill="#1A192B"/>
<path d="M94.6 131.6C101.669 131.6 107.4 125.869 107.4 118.8C107.4 111.731 101.669 106 94.6 106C87.5305 106 81.8 111.731 81.8 118.8C81.8 125.869 87.5305 131.6 94.6 131.6Z" fill="#1A192B"/>
<path d="M133 131.6C140.069 131.6 145.8 125.869 145.8 118.8C145.8 111.731 140.069 106 133 106C125.931 106 120.2 111.731 120.2 118.8C120.2 125.869 125.931 131.6 133 131.6Z" fill="#E33873"/>
<path d="M177.8 176.4C184.869 176.4 190.6 170.669 190.6 163.6C190.6 156.531 184.869 150.8 177.8 150.8C170.731 150.8 165 156.531 165 163.6C165 170.669 170.731 176.4 177.8 176.4Z" fill="#E33873"/>
<path d="M205.519 68.7014L192.272 47.6168L169.277 11.0196C169.264 10.972 169.204 10.9371 169.174 10.9196C168.297 9.64805 166.36 10.1413 166.116 11.6113L158.148 64.3546L158.145 64.3654C158.139 64.4183 158.13 64.4691 158.124 64.522C157.889 66.5254 158.828 68.3882 160.246 69.7267C160.367 69.8373 160.451 69.9219 160.599 70.0516C160.743 70.1844 160.947 70.3689 161.137 70.4993C161.169 70.5214 161.199 70.5388 161.23 70.5609L161.255 70.5748C161.277 70.592 161.301 70.606 161.324 70.6229L161.357 70.642C161.376 70.6572 161.4 70.6711 161.422 70.6833L161.461 70.706C161.483 70.7232 161.507 70.7371 161.532 70.7511C181.543 85.4092 203.088 97.8483 225.788 107.85C226.045 107.998 226.303 108.13 226.558 108.246C226.642 108.282 226.723 108.317 226.804 108.351C226.814 108.353 226.826 108.36 226.837 108.363C226.892 108.386 226.949 108.407 227.005 108.427C227.086 108.462 227.17 108.491 227.254 108.519C227.425 108.573 227.507 108.588 227.753 108.636C227.999 108.684 228.41 108.757 228.682 108.778C228.954 108.798 229.159 108.785 229.402 108.776C229.703 108.764 229.994 108.743 230.299 108.706C230.432 108.689 230.52 108.68 230.623 108.655L230.599 108.613L205.519 68.7014Z" fill="#FF4B4B"/>
<path d="M273.648 71.2787L273.618 71.2613L230.414 69.6384L232.993 107.672L274.689 74.2963L274.723 74.2359C275.879 73.2113 275.243 71.3135 273.648 71.2787Z" fill="#7D353B"/>
<path d="M228.001 33.8356C227.868 32.1115 226.025 31.0477 224.496 31.8123L192.272 47.6171L205.518 68.7017L230.624 108.655C230.979 108.564 231.286 108.453 231.61 108.335C232.075 108.157 232.537 107.944 232.992 107.671L230.413 69.638L228.001 33.8356Z" fill="#BD4043"/>
</svg>
