<svg width="768" height="345" viewBox="0 0 768 345" fill="none" xmlns="http://www.w3.org/2000/svg">
<rect y="5" width="768" height="340" rx="10" fill="#FFFDFD"/>
<path d="M242.8 201.499H178.8C171.731 201.499 166 207.23 166 214.299V278.299C166 285.369 171.731 291.099 178.8 291.099H242.8C249.869 291.099 255.6 285.369 255.6 278.299V214.299C255.6 207.23 249.869 201.499 242.8 201.499Z" stroke="#1A192B" stroke-width="10"/>
<path d="M114.8 201.499H50.8C43.7308 201.499 38 207.23 38 214.299V278.299C38 285.369 43.7308 291.099 50.8 291.099H114.8C121.869 291.099 127.6 285.369 127.6 278.299V214.299C127.6 207.23 121.869 201.499 114.8 201.499Z" stroke="#1A192B" stroke-width="10"/>
<path d="M242.8 73.4993H178.8C171.731 73.4993 166 79.2301 166 86.2993V150.299C166 157.369 171.731 163.099 178.8 163.099H242.8C249.869 163.099 255.6 157.369 255.6 150.299V86.2993C255.6 79.2301 249.869 73.4993 242.8 73.4993Z" stroke="#E33873" stroke-width="10"/>
<path d="M114.8 73.4993H50.8C43.7308 73.4993 38 79.2301 38 86.2993V150.299C38 157.369 43.7308 163.099 50.8 163.099H114.8C121.869 163.099 127.6 157.369 127.6 150.299V86.2993C127.6 79.2301 121.869 73.4993 114.8 73.4993Z" stroke="#1A192B" stroke-width="10"/>
<path d="M127.6 137.499C138.204 137.499 146.8 128.904 146.8 118.299C146.8 107.696 138.204 99.0994 127.6 99.0994C116.996 99.0994 108.4 107.696 108.4 118.299C108.4 128.904 116.996 137.499 127.6 137.499Z" fill="white"/>
<path d="M166 137.499C176.604 137.499 185.2 128.904 185.2 118.299C185.2 107.696 176.604 99.0994 166 99.0994C155.396 99.0994 146.8 107.696 146.8 118.299C146.8 128.904 155.396 137.499 166 137.499Z" fill="white"/>
<path d="M210.8 182.299C221.404 182.299 230 173.704 230 163.099C230 152.495 221.404 143.899 210.8 143.899C200.196 143.899 191.6 152.495 191.6 163.099C191.6 173.704 200.196 182.299 210.8 182.299Z" fill="white"/>
<path d="M210.8 220.699C221.404 220.699 230 212.103 230 201.499C230 190.895 221.404 182.299 210.8 182.299C200.196 182.299 191.6 190.895 191.6 201.499C191.6 212.103 200.196 220.699 210.8 220.699Z" fill="white"/>
<path d="M127.6 265.499C138.204 265.499 146.8 256.904 146.8 246.299C146.8 235.695 138.204 227.099 127.6 227.099C116.996 227.099 108.4 235.695 108.4 246.299C108.4 256.904 116.996 265.499 127.6 265.499Z" fill="white"/>
<path d="M166 265.499C176.604 265.499 185.2 256.904 185.2 246.299C185.2 235.695 176.604 227.099 166 227.099C155.396 227.099 146.8 235.695 146.8 246.299C146.8 256.904 155.396 265.499 166 265.499Z" fill="white"/>
<path d="M210.8 214.299C217.869 214.299 223.6 208.569 223.6 201.499C223.6 194.43 217.869 188.699 210.8 188.699C203.731 188.699 198 194.43 198 201.499C198 208.569 203.731 214.299 210.8 214.299Z" fill="#1A192B"/>
<path d="M127.6 259.099C134.669 259.099 140.4 253.369 140.4 246.299C140.4 239.23 134.669 233.499 127.6 233.499C120.531 233.499 114.8 239.23 114.8 246.299C114.8 253.369 120.531 259.099 127.6 259.099Z" fill="#1A192B"/>
<path d="M166 259.099C173.069 259.099 178.8 253.369 178.8 246.299C178.8 239.23 173.069 233.499 166 233.499C158.931 233.499 153.2 239.23 153.2 246.299C153.2 253.369 158.931 259.099 166 259.099Z" fill="#1A192B"/>
<path opacity="0.35" d="M159.6 115.099H134V121.499H159.6V115.099Z" fill="#1A192B"/>
<path opacity="0.35" d="M207.6 166.299V191.899H214V166.299H207.6Z" fill="#1A192B"/>
<path opacity="0.35" d="M159.6 243.099H134V249.499H159.6V243.099Z" fill="#1A192B"/>
<path d="M127.6 131.099C134.669 131.099 140.4 125.369 140.4 118.299C140.4 111.23 134.669 105.499 127.6 105.499C120.531 105.499 114.8 111.23 114.8 118.299C114.8 125.369 120.531 131.099 127.6 131.099Z" fill="#1A192B"/>
<path d="M166 131.099C173.069 131.099 178.8 125.369 178.8 118.299C178.8 111.23 173.069 105.499 166 105.499C158.931 105.499 153.2 111.23 153.2 118.299C153.2 125.369 158.931 131.099 166 131.099Z" fill="#E33873"/>
<path d="M210.8 175.899C217.869 175.899 223.6 170.169 223.6 163.099C223.6 156.03 217.869 150.299 210.8 150.299C203.731 150.299 198 156.03 198 163.099C198 170.169 203.731 175.899 210.8 175.899Z" fill="#E33873"/>
<path d="M238.519 68.2007L225.272 47.1162L202.277 10.5189C202.264 10.4713 202.204 10.4364 202.174 10.419C201.297 9.1474 199.36 9.64065 199.116 11.1106L191.148 63.854L191.145 63.8648C191.139 63.9177 191.13 63.9684 191.124 64.0213C190.889 66.0248 191.828 67.8875 193.246 69.226C193.367 69.3367 193.451 69.4213 193.599 69.551C193.743 69.6838 193.947 69.8683 194.137 69.9986C194.169 70.0207 194.199 70.0381 194.23 70.0602L194.255 70.0742C194.277 70.0914 194.301 70.1054 194.324 70.1222L194.357 70.1414C194.376 70.1565 194.4 70.1705 194.422 70.1827L194.461 70.2053C194.483 70.2226 194.507 70.2365 194.532 70.2505C214.543 84.9085 236.088 97.3477 258.788 107.349C259.045 107.497 259.303 107.63 259.558 107.745C259.642 107.782 259.723 107.816 259.804 107.851C259.814 107.853 259.826 107.86 259.837 107.862C259.892 107.885 259.949 107.906 260.005 107.927C260.086 107.961 260.17 107.99 260.254 108.018C260.425 108.072 260.507 108.088 260.753 108.136C260.999 108.183 261.41 108.257 261.682 108.277C261.954 108.297 262.159 108.284 262.402 108.275C262.703 108.263 262.994 108.242 263.299 108.206C263.432 108.188 263.52 108.18 263.623 108.155L263.599 108.113L238.519 68.2007Z" fill="#FF4B4B"/>
<path d="M306.648 70.778L306.618 70.7606L263.414 69.1378L265.993 107.171L307.689 73.7956L307.723 73.7352C308.879 72.7107 308.243 70.8129 306.648 70.778Z" fill="#7D353B"/>
<path d="M261.001 33.3349C260.868 31.6109 259.025 30.5471 257.496 31.3117L225.272 47.1164L238.518 68.2011L263.624 108.155C263.979 108.064 264.286 107.952 264.61 107.834C265.075 107.656 265.537 107.443 265.992 107.17L263.413 69.1373L261.001 33.3349Z" fill="#BD4043"/>
<path d="M352.943 109.261C352.398 103.773 348.068 100.568 341.011 100.568C333.784 100.568 329.795 103.875 329.795 108.375C329.693 113.386 334.773 115.636 340.841 117.034L347.114 118.534C359.25 121.261 368.011 127.432 368.045 139.057C368.011 151.841 357.989 159.989 340.943 159.989C324 159.989 313.193 152.182 312.818 137.08H327.102C327.58 144.068 333.102 147.614 340.773 147.614C348.273 147.614 353.114 144.136 353.148 139.023C353.114 134.318 348.886 132.136 341.284 130.295L333.682 128.386C321.886 125.557 314.625 119.659 314.659 109.364C314.591 96.6818 325.807 88.2273 341.114 88.2273C356.659 88.2273 366.886 96.8182 367.091 109.261H352.943ZM405.554 106.636V117.545H395.702V142.909C395.702 146.932 397.713 148.023 400.611 148.023C401.974 148.023 403.509 147.682 404.224 147.545L406.509 158.352C405.043 158.83 402.384 159.58 398.634 159.716C388.099 160.159 381.111 155.08 381.179 144.818V117.545H374.02V106.636H381.179V94.0909H395.702V106.636H405.554ZM415.014 159V106.636H429.094V115.773H429.639C431.548 109.295 436.355 105.886 442.219 105.886C443.685 105.886 445.491 106.091 446.787 106.398V119.284C445.423 118.841 442.662 118.5 440.651 118.5C434.241 118.5 429.537 122.932 429.537 129.375V159H415.014ZM475.722 160.023C459.597 160.023 449.744 149.659 449.744 133.057C449.744 116.898 459.733 105.955 475.142 105.955C488.983 105.955 499.756 114.75 499.756 132.545V136.534H464.097V136.568C464.097 144.375 468.699 149.182 475.96 149.182C480.801 149.182 484.551 147.102 486.017 143.114L499.449 144C497.403 153.716 488.676 160.023 475.722 160.023ZM464.097 127.534H486.085C486.051 121.295 481.688 116.795 475.381 116.795C468.938 116.795 464.403 121.568 464.097 127.534ZM524.165 159.989C514.176 159.989 506.778 154.739 506.778 144.375C506.778 132.682 516.085 129.205 526.449 128.25C535.551 127.364 539.131 126.92 539.131 123.545V123.341C539.131 119.045 536.301 116.557 531.358 116.557C526.142 116.557 523.04 119.114 522.051 122.591L508.619 121.5C510.631 111.955 518.881 105.955 531.426 105.955C543.085 105.955 553.653 111.205 553.653 123.682V159H539.881V151.739H539.472C536.915 156.614 531.903 159.989 524.165 159.989ZM528.324 149.966C534.699 149.966 539.233 145.773 539.233 140.284V134.727C537.494 135.886 532.312 136.636 529.142 137.08C524.028 137.795 520.653 139.807 520.653 143.898C520.653 147.886 523.858 149.966 528.324 149.966ZM564.92 159V106.636H578.761V115.875H579.375C581.557 109.705 586.909 105.955 593.966 105.955C601.159 105.955 606.511 109.807 608.182 115.875H608.727C610.875 109.875 616.841 105.955 624.511 105.955C634.261 105.955 641.011 112.432 641.011 123.784V159H626.523V126.648C626.523 120.818 623.045 117.92 618.409 117.92C613.125 117.92 610.023 121.602 610.023 127.023V159H595.943V126.341C595.943 121.193 592.739 117.92 587.966 117.92C583.125 117.92 579.443 121.773 579.443 127.568V159H564.92ZM667.006 89.1818V159H652.483V89.1818H667.006ZM678.639 159V106.636H693.162V159H678.639ZM685.935 99.8864C681.639 99.8864 678.094 96.5795 678.094 92.5227C678.094 88.5 681.639 85.1932 685.935 85.1932C690.264 85.1932 693.81 88.5 693.81 92.5227C693.81 96.5795 690.264 99.8864 685.935 99.8864ZM732.648 106.636V117.545H722.795V142.909C722.795 146.932 724.807 148.023 727.705 148.023C729.068 148.023 730.602 147.682 731.318 147.545L733.602 158.352C732.136 158.83 729.477 159.58 725.727 159.716C715.193 160.159 708.205 155.08 708.273 144.818V117.545H701.114V106.636H708.273V94.0909H722.795V106.636H732.648Z" fill="#E33873"/>
<path d="M315.068 275V205.182H361.295V217.352H329.83V233.989H358.227V246.159H329.83V275H315.068ZM385.474 205.182V275H370.952V205.182H385.474ZM420.767 276.023C404.881 276.023 394.994 265.148 394.994 249.023C394.994 232.795 404.881 221.955 420.767 221.955C436.653 221.955 446.54 232.795 446.54 249.023C446.54 265.148 436.653 276.023 420.767 276.023ZM420.835 264.773C428.028 264.773 431.778 258.057 431.778 248.92C431.778 239.784 428.028 233.034 420.835 233.034C413.506 233.034 409.756 239.784 409.756 248.92C409.756 258.057 413.506 264.773 420.835 264.773ZM465 275L450.75 222.636H465.443L473.557 257.818H474.034L482.489 222.636H496.909L505.5 257.614H505.943L513.92 222.636H528.58L514.364 275H498.989L489.989 242.068H489.341L480.341 275H465Z" fill="#1A192B"/>
</svg>
