<svg width="705" height="297" viewBox="0 0 705 297" fill="none" xmlns="http://www.w3.org/2000/svg">
<path d="M209.8 201.499H145.8C138.731 201.499 133 207.23 133 214.299V278.299C133 285.369 138.731 291.099 145.8 291.099H209.8C216.869 291.099 222.6 285.369 222.6 278.299V214.299C222.6 207.23 216.869 201.499 209.8 201.499Z" stroke="#1A192B" stroke-width="10"/>
<path d="M81.8 201.499H17.8C10.7308 201.499 5 207.23 5 214.299V278.299C5 285.369 10.7308 291.099 17.8 291.099H81.8C88.8694 291.099 94.6 285.369 94.6 278.299V214.299C94.6 207.23 88.8694 201.499 81.8 201.499Z" stroke="#1A192B" stroke-width="10"/>
<path d="M209.8 73.4993H145.8C138.731 73.4993 133 79.2301 133 86.2993V150.299C133 157.369 138.731 163.099 145.8 163.099H209.8C216.869 163.099 222.6 157.369 222.6 150.299V86.2993C222.6 79.2301 216.869 73.4993 209.8 73.4993Z" stroke="#E33873" stroke-width="10"/>
<path d="M81.8 73.4993H17.8C10.7308 73.4993 5 79.2301 5 86.2993V150.299C5 157.369 10.7308 163.099 17.8 163.099H81.8C88.8694 163.099 94.6 157.369 94.6 150.299V86.2993C94.6 79.2301 88.8694 73.4993 81.8 73.4993Z" stroke="#1A192B" stroke-width="10"/>
<path d="M94.6 137.499C105.204 137.499 113.8 128.904 113.8 118.299C113.8 107.696 105.204 99.0994 94.6 99.0994C83.9959 99.0994 75.4 107.696 75.4 118.299C75.4 128.904 83.9959 137.499 94.6 137.499Z" fill="white"/>
<path d="M133 137.499C143.604 137.499 152.2 128.904 152.2 118.299C152.2 107.696 143.604 99.0994 133 99.0994C122.396 99.0994 113.8 107.696 113.8 118.299C113.8 128.904 122.396 137.499 133 137.499Z" fill="white"/>
<path d="M177.8 182.299C188.404 182.299 197 173.704 197 163.099C197 152.495 188.404 143.899 177.8 143.899C167.196 143.899 158.6 152.495 158.6 163.099C158.6 173.704 167.196 182.299 177.8 182.299Z" fill="white"/>
<path d="M177.8 220.699C188.404 220.699 197 212.103 197 201.499C197 190.895 188.404 182.299 177.8 182.299C167.196 182.299 158.6 190.895 158.6 201.499C158.6 212.103 167.196 220.699 177.8 220.699Z" fill="white"/>
<path d="M94.6 265.499C105.204 265.499 113.8 256.904 113.8 246.299C113.8 235.695 105.204 227.099 94.6 227.099C83.9959 227.099 75.4 235.695 75.4 246.299C75.4 256.904 83.9959 265.499 94.6 265.499Z" fill="white"/>
<path d="M133 265.499C143.604 265.499 152.2 256.904 152.2 246.299C152.2 235.695 143.604 227.099 133 227.099C122.396 227.099 113.8 235.695 113.8 246.299C113.8 256.904 122.396 265.499 133 265.499Z" fill="white"/>
<path d="M177.8 214.299C184.869 214.299 190.6 208.569 190.6 201.499C190.6 194.43 184.869 188.699 177.8 188.699C170.731 188.699 165 194.43 165 201.499C165 208.569 170.731 214.299 177.8 214.299Z" fill="#1A192B"/>
<path d="M94.6 259.099C101.669 259.099 107.4 253.369 107.4 246.299C107.4 239.23 101.669 233.499 94.6 233.499C87.5305 233.499 81.8 239.23 81.8 246.299C81.8 253.369 87.5305 259.099 94.6 259.099Z" fill="#1A192B"/>
<path d="M133 259.099C140.069 259.099 145.8 253.369 145.8 246.299C145.8 239.23 140.069 233.499 133 233.499C125.931 233.499 120.2 239.23 120.2 246.299C120.2 253.369 125.931 259.099 133 259.099Z" fill="#1A192B"/>
<path opacity="0.35" d="M126.6 115.099H101V121.499H126.6V115.099Z" fill="#1A192B"/>
<path opacity="0.35" d="M174.6 166.299V191.899H181V166.299H174.6Z" fill="#1A192B"/>
<path opacity="0.35" d="M126.6 243.099H101V249.499H126.6V243.099Z" fill="#1A192B"/>
<path d="M94.6 131.099C101.669 131.099 107.4 125.369 107.4 118.299C107.4 111.23 101.669 105.499 94.6 105.499C87.5305 105.499 81.8 111.23 81.8 118.299C81.8 125.369 87.5305 131.099 94.6 131.099Z" fill="#1A192B"/>
<path d="M133 131.099C140.069 131.099 145.8 125.369 145.8 118.299C145.8 111.23 140.069 105.499 133 105.499C125.931 105.499 120.2 111.23 120.2 118.299C120.2 125.369 125.931 131.099 133 131.099Z" fill="#E33873"/>
<path d="M177.8 175.899C184.869 175.899 190.6 170.169 190.6 163.099C190.6 156.03 184.869 150.299 177.8 150.299C170.731 150.299 165 156.03 165 163.099C165 170.169 170.731 175.899 177.8 175.899Z" fill="#E33873"/>
<path d="M205.519 68.2007L192.272 47.1162L169.277 10.5189C169.264 10.4713 169.204 10.4364 169.174 10.419C168.297 9.1474 166.36 9.64065 166.116 11.1106L158.148 63.854L158.145 63.8648C158.139 63.9177 158.13 63.9684 158.124 64.0213C157.889 66.0248 158.828 67.8875 160.246 69.226C160.367 69.3367 160.451 69.4213 160.599 69.551C160.743 69.6838 160.947 69.8683 161.137 69.9986C161.169 70.0207 161.199 70.0381 161.23 70.0602L161.255 70.0742C161.277 70.0914 161.301 70.1054 161.324 70.1222L161.357 70.1414C161.376 70.1565 161.4 70.1705 161.422 70.1827L161.461 70.2053C161.483 70.2226 161.507 70.2365 161.532 70.2505C181.543 84.9085 203.088 97.3477 225.788 107.349C226.045 107.497 226.303 107.63 226.558 107.745C226.642 107.782 226.723 107.816 226.804 107.851C226.814 107.853 226.826 107.86 226.837 107.862C226.892 107.885 226.949 107.906 227.005 107.927C227.086 107.961 227.17 107.99 227.254 108.018C227.425 108.072 227.507 108.088 227.753 108.136C227.999 108.183 228.41 108.257 228.682 108.277C228.954 108.297 229.159 108.284 229.402 108.275C229.703 108.263 229.994 108.242 230.299 108.206C230.432 108.188 230.52 108.18 230.623 108.155L230.599 108.113L205.519 68.2007Z" fill="#FF4B4B"/>
<path d="M273.648 70.778L273.618 70.7606L230.414 69.1378L232.993 107.171L274.689 73.7956L274.723 73.7352C275.879 72.7107 275.243 70.8129 273.648 70.778Z" fill="#7D353B"/>
<path d="M228.001 33.3349C227.868 31.6109 226.025 30.5471 224.496 31.3117L192.272 47.1164L205.518 68.2011L230.624 108.155C230.979 108.064 231.286 107.952 231.61 107.834C232.075 107.656 232.537 107.443 232.992 107.17L230.413 69.1373L228.001 33.3349Z" fill="#BD4043"/>
<path d="M323.943 116.261C323.398 110.773 319.068 107.568 312.011 107.568C304.784 107.568 300.795 110.875 300.795 115.375C300.693 120.386 305.773 122.636 311.841 124.034L318.114 125.534C330.25 128.261 339.011 134.432 339.045 146.057C339.011 158.841 328.989 166.989 311.943 166.989C295 166.989 284.193 159.182 283.818 144.08H298.102C298.58 151.068 304.102 154.614 311.773 154.614C319.273 154.614 324.114 151.136 324.148 146.023C324.114 141.318 319.886 139.136 312.284 137.295L304.682 135.386C292.886 132.557 285.625 126.659 285.659 116.364C285.591 103.682 296.807 95.2273 312.114 95.2273C327.659 95.2273 337.886 103.818 338.091 116.261H323.943ZM376.554 113.636V124.545H366.702V149.909C366.702 153.932 368.713 155.023 371.611 155.023C372.974 155.023 374.509 154.682 375.224 154.545L377.509 165.352C376.043 165.83 373.384 166.58 369.634 166.716C359.099 167.159 352.111 162.08 352.179 151.818V124.545H345.02V113.636H352.179V101.091H366.702V113.636H376.554ZM386.014 166V113.636H400.094V122.773H400.639C402.548 116.295 407.355 112.886 413.219 112.886C414.685 112.886 416.491 113.091 417.787 113.398V126.284C416.423 125.841 413.662 125.5 411.651 125.5C405.241 125.5 400.537 129.932 400.537 136.375V166H386.014ZM446.722 167.023C430.597 167.023 420.744 156.659 420.744 140.057C420.744 123.898 430.733 112.955 446.142 112.955C459.983 112.955 470.756 121.75 470.756 139.545V143.534H435.097V143.568C435.097 151.375 439.699 156.182 446.96 156.182C451.801 156.182 455.551 154.102 457.017 150.114L470.449 151C468.403 160.716 459.676 167.023 446.722 167.023ZM435.097 134.534H457.085C457.051 128.295 452.688 123.795 446.381 123.795C439.938 123.795 435.403 128.568 435.097 134.534ZM495.165 166.989C485.176 166.989 477.778 161.739 477.778 151.375C477.778 139.682 487.085 136.205 497.449 135.25C506.551 134.364 510.131 133.92 510.131 130.545V130.341C510.131 126.045 507.301 123.557 502.358 123.557C497.142 123.557 494.04 126.114 493.051 129.591L479.619 128.5C481.631 118.955 489.881 112.955 502.426 112.955C514.085 112.955 524.653 118.205 524.653 130.682V166H510.881V158.739H510.472C507.915 163.614 502.903 166.989 495.165 166.989ZM499.324 156.966C505.699 156.966 510.233 152.773 510.233 147.284V141.727C508.494 142.886 503.312 143.636 500.142 144.08C495.028 144.795 491.653 146.807 491.653 150.898C491.653 154.886 494.858 156.966 499.324 156.966ZM535.92 166V113.636H549.761V122.875H550.375C552.557 116.705 557.909 112.955 564.966 112.955C572.159 112.955 577.511 116.807 579.182 122.875H579.727C581.875 116.875 587.841 112.955 595.511 112.955C605.261 112.955 612.011 119.432 612.011 130.784V166H597.523V133.648C597.523 127.818 594.045 124.92 589.409 124.92C584.125 124.92 581.023 128.602 581.023 134.023V166H566.943V133.341C566.943 128.193 563.739 124.92 558.966 124.92C554.125 124.92 550.443 128.773 550.443 134.568V166H535.92ZM638.006 96.1818V166H623.483V96.1818H638.006ZM649.639 166V113.636H664.162V166H649.639ZM656.935 106.886C652.639 106.886 649.094 103.58 649.094 99.5227C649.094 95.5 652.639 92.1932 656.935 92.1932C661.264 92.1932 664.81 95.5 664.81 99.5227C664.81 103.58 661.264 106.886 656.935 106.886ZM703.648 113.636V124.545H693.795V149.909C693.795 153.932 695.807 155.023 698.705 155.023C700.068 155.023 701.602 154.682 702.318 154.545L704.602 165.352C703.136 165.83 700.477 166.58 696.727 166.716C686.193 167.159 679.205 162.08 679.273 151.818V124.545H672.114V113.636H679.273V101.091H693.795V113.636H703.648Z" fill="#E33873"/>
<path d="M286.068 282V212.182H332.295V224.352H300.83V240.989H329.227V253.159H300.83V282H286.068ZM356.474 212.182V282H341.952V212.182H356.474ZM391.767 283.023C375.881 283.023 365.994 272.148 365.994 256.023C365.994 239.795 375.881 228.955 391.767 228.955C407.653 228.955 417.54 239.795 417.54 256.023C417.54 272.148 407.653 283.023 391.767 283.023ZM391.835 271.773C399.028 271.773 402.778 265.057 402.778 255.92C402.778 246.784 399.028 240.034 391.835 240.034C384.506 240.034 380.756 246.784 380.756 255.92C380.756 265.057 384.506 271.773 391.835 271.773ZM436 282L421.75 229.636H436.443L444.557 264.818H445.034L453.489 229.636H467.909L476.5 264.614H476.943L484.92 229.636H499.58L485.364 282H469.989L460.989 249.068H460.341L451.341 282H436Z" fill="#1A192B"/>
</svg>
