<svg width="340" height="340" viewBox="0 0 340 340" fill="none" xmlns="http://www.w3.org/2000/svg">
<rect width="340" height="340" rx="10" fill="white"/>
<path d="M263.8 202H199.8C192.731 202 187 207.731 187 214.8V278.8C187 285.869 192.731 291.6 199.8 291.6H263.8C270.869 291.6 276.6 285.869 276.6 278.8V214.8C276.6 207.731 270.869 202 263.8 202Z" stroke="#1A192B" stroke-width="10"/>
<path d="M135.8 202H71.8C64.7308 202 59 207.731 59 214.8V278.8C59 285.869 64.7308 291.6 71.8 291.6H135.8C142.869 291.6 148.6 285.869 148.6 278.8V214.8C148.6 207.731 142.869 202 135.8 202Z" stroke="#1A192B" stroke-width="10"/>
<path d="M263.8 74H199.8C192.731 74 187 79.7308 187 86.8V150.8C187 157.869 192.731 163.6 199.8 163.6H263.8C270.869 163.6 276.6 157.869 276.6 150.8V86.8C276.6 79.7308 270.869 74 263.8 74Z" stroke="#E33873" stroke-width="10"/>
<path d="M135.8 74H71.8C64.7308 74 59 79.7308 59 86.8V150.8C59 157.869 64.7308 163.6 71.8 163.6H135.8C142.869 163.6 148.6 157.869 148.6 150.8V86.8C148.6 79.7308 142.869 74 135.8 74Z" stroke="#1A192B" stroke-width="10"/>
<path d="M148.6 138C159.204 138 167.8 129.404 167.8 118.8C167.8 108.196 159.204 99.6 148.6 99.6C137.996 99.6 129.4 108.196 129.4 118.8C129.4 129.404 137.996 138 148.6 138Z" fill="white"/>
<path d="M187 138C197.604 138 206.2 129.404 206.2 118.8C206.2 108.196 197.604 99.6 187 99.6C176.396 99.6 167.8 108.196 167.8 118.8C167.8 129.404 176.396 138 187 138Z" fill="white"/>
<path d="M231.8 182.8C242.404 182.8 251 174.204 251 163.6C251 152.996 242.404 144.4 231.8 144.4C221.196 144.4 212.6 152.996 212.6 163.6C212.6 174.204 221.196 182.8 231.8 182.8Z" fill="white"/>
<path d="M231.8 221.2C242.404 221.2 251 212.604 251 202C251 191.396 242.404 182.8 231.8 182.8C221.196 182.8 212.6 191.396 212.6 202C212.6 212.604 221.196 221.2 231.8 221.2Z" fill="white"/>
<path d="M148.6 266C159.204 266 167.8 257.404 167.8 246.8C167.8 236.196 159.204 227.6 148.6 227.6C137.996 227.6 129.4 236.196 129.4 246.8C129.4 257.404 137.996 266 148.6 266Z" fill="white"/>
<path d="M187 266C197.604 266 206.2 257.404 206.2 246.8C206.2 236.196 197.604 227.6 187 227.6C176.396 227.6 167.8 236.196 167.8 246.8C167.8 257.404 176.396 266 187 266Z" fill="white"/>
<path d="M231.8 214.8C238.869 214.8 244.6 209.069 244.6 202C244.6 194.931 238.869 189.2 231.8 189.2C224.731 189.2 219 194.931 219 202C219 209.069 224.731 214.8 231.8 214.8Z" fill="#1A192B"/>
<path d="M148.6 259.6C155.669 259.6 161.4 253.869 161.4 246.8C161.4 239.731 155.669 234 148.6 234C141.531 234 135.8 239.731 135.8 246.8C135.8 253.869 141.531 259.6 148.6 259.6Z" fill="#1A192B"/>
<path d="M187 259.6C194.069 259.6 199.8 253.869 199.8 246.8C199.8 239.731 194.069 234 187 234C179.931 234 174.2 239.731 174.2 246.8C174.2 253.869 179.931 259.6 187 259.6Z" fill="#1A192B"/>
<path opacity="0.35" d="M180.6 115.6H155V122H180.6V115.6Z" fill="#1A192B"/>
<path opacity="0.35" d="M228.6 166.8V192.4H235V166.8H228.6Z" fill="#1A192B"/>
<path opacity="0.35" d="M180.6 243.6H155V250H180.6V243.6Z" fill="#1A192B"/>
<path d="M148.6 131.6C155.669 131.6 161.4 125.869 161.4 118.8C161.4 111.731 155.669 106 148.6 106C141.531 106 135.8 111.731 135.8 118.8C135.8 125.869 141.531 131.6 148.6 131.6Z" fill="#1A192B"/>
<path d="M187 131.6C194.069 131.6 199.8 125.869 199.8 118.8C199.8 111.731 194.069 106 187 106C179.931 106 174.2 111.731 174.2 118.8C174.2 125.869 179.931 131.6 187 131.6Z" fill="#E33873"/>
<path d="M231.8 176.4C238.869 176.4 244.6 170.669 244.6 163.6C244.6 156.531 238.869 150.8 231.8 150.8C224.731 150.8 219 156.531 219 163.6C219 170.669 224.731 176.4 231.8 176.4Z" fill="#E33873"/>
<path d="M259.519 68.7014L246.272 47.6168L223.277 11.0196C223.264 10.972 223.204 10.9371 223.174 10.9196C222.297 9.64805 220.36 10.1413 220.116 11.6113L212.148 64.3546L212.145 64.3654C212.139 64.4183 212.13 64.4691 212.124 64.522C211.889 66.5254 212.828 68.3882 214.246 69.7267C214.367 69.8373 214.451 69.9219 214.599 70.0516C214.743 70.1844 214.947 70.3689 215.137 70.4993C215.169 70.5214 215.199 70.5388 215.23 70.5609L215.255 70.5748C215.277 70.592 215.301 70.606 215.324 70.6229L215.357 70.642C215.376 70.6572 215.4 70.6711 215.422 70.6833L215.461 70.706C215.483 70.7232 215.507 70.7371 215.532 70.7511C235.543 85.4092 257.088 97.8483 279.788 107.85C280.045 107.998 280.303 108.13 280.558 108.246C280.642 108.282 280.723 108.317 280.804 108.351C280.814 108.353 280.826 108.36 280.837 108.363C280.892 108.386 280.949 108.407 281.005 108.427C281.086 108.462 281.17 108.491 281.254 108.519C281.425 108.573 281.507 108.588 281.753 108.636C281.999 108.684 282.41 108.757 282.682 108.778C282.954 108.798 283.159 108.785 283.402 108.776C283.703 108.764 283.994 108.743 284.299 108.706C284.432 108.689 284.52 108.68 284.623 108.655L284.599 108.613L259.519 68.7014Z" fill="#FF4B4B"/>
<path d="M327.648 71.2787L327.618 71.2613L284.414 69.6384L286.993 107.672L328.689 74.2963L328.723 74.2359C329.879 73.2113 329.243 71.3135 327.648 71.2787Z" fill="#7D353B"/>
<path d="M282.001 33.8356C281.868 32.1115 280.025 31.0477 278.496 31.8123L246.272 47.6171L259.518 68.7017L284.624 108.655C284.979 108.564 285.286 108.453 285.61 108.335C286.075 108.157 286.537 107.944 286.992 107.671L284.413 69.638L282.001 33.8356Z" fill="#BD4043"/>
</svg>
